<?xml version="1.0" encoding="iso-8859-1"?>
<!-- Generator: Adobe Illustrator 19.0.0, SVG Export Plug-In . SVG Version: 6.00 Build 0)  -->
<svg version="1.1" id="Capa_1" xmlns="http://www.w3.org/2000/svg" xmlns:xlink="http://www.w3.org/1999/xlink" x="0px" y="0px"
	 viewBox="0 0 512 512" style="enable-background:new 0 0 512 512;" xml:space="preserve">
<g>
	<g>
		<path d="M351.611,88.552c-10.049-20.881-35.211-29.695-56.088-19.644c-33.588,16.163-30.865,65.198,4.331,77.528
			C335.212,158.818,367.728,122.041,351.611,88.552z M304.812,132.278c-22.618-7.922-24.397-39.452-2.785-49.853
			c13.378-6.436,29.583-0.843,36.067,12.632C348.47,116.616,327.47,140.214,304.812,132.278z"/>
	</g>
</g>
<g>
	<g>
		<path d="M420.339,102.912c-12.252-25.46-49.509-23.475-58.884,3.29c-9.311,26.591,18.26,51.681,43.965,39.31h-0.001
			C421.277,137.88,427.97,118.77,420.339,102.912z M398.914,131.996c-13.52,6.506-28.263-6.667-23.301-20.835
			c4.927-14.072,24.637-15.398,31.21-1.744C410.867,117.822,407.319,127.951,398.914,131.996z"/>
	</g>
</g>
<g>
	<g>
		<path d="M436.067,120.682c-13.509,6.499-19.184,22.695-12.681,36.206c10.47,21.759,42.083,19.937,50.046-2.796
			C481.345,131.492,457.914,110.164,436.067,120.682z M453.088,156.052c-6.024,2.898-13.286,0.357-16.186-5.668
			c-4.708-9.787,4.844-20.234,14.936-16.703C462.009,137.242,462.756,151.399,453.088,156.052z"/>
	</g>
</g>
<g>
	<g>
		<path d="M502.588,176.062c-8.908-18.512-36.063-17.24-42.94,2.399c-5.341,15.248,6.068,30.982,21.984,30.982
			C498.615,209.444,510.049,191.564,502.588,176.062z M485.203,193.613c-4.113,1.977-9.057,0.264-11.045-3.869
			c-1.982-4.12-0.255-9.06,3.869-11.045c4.114-1.979,9.057-0.262,11.045,3.867v0.001
			C491.051,186.679,489.315,191.633,485.203,193.613z"/>
	</g>
</g>
<g>
	<g>
		<path d="M510.226,221.404c-4.28-8.898-14.951-12.639-23.851-8.354c-8.898,4.281-12.638,14.952-8.353,23.85
			c4.27,8.874,14.925,12.652,23.85,8.354C510.77,240.974,514.51,230.305,510.226,221.404z M495.367,231.738
			c-3.418,1.641-5.91-3.525-2.488-5.171C496.299,224.92,498.788,230.088,495.367,231.738z"/>
	</g>
</g>
<g>
	<g>
		<path d="M237.909,28.124c-12.344-35.247-61.404-37.841-77.528-4.332c-13.445,27.938,7.098,60.243,37.799,60.243
			C227.305,84.034,247.439,55.335,237.909,28.124z M186.53,66.363c-13.426-6.46-19.093-22.641-12.633-36.068
			c10.446-21.705,41.955-19.766,49.854,2.786C231.691,55.749,208.078,76.722,186.53,66.363z"/>
	</g>
</g>
<g>
	<g>
		<path d="M150.536,41.442c-9.392-26.813-46.632-28.753-58.883-3.291c-7.631,15.857-0.938,34.968,14.919,42.6
			C132.391,93.175,159.821,67.947,150.536,41.442z M135.656,59.326c-4.053,8.421-14.151,11.965-22.578,7.908
			c-13.495-6.494-12.443-26.242,1.743-31.209C128.916,31.091,142.214,45.702,135.656,59.326z"/>
	</g>
</g>
<g>
	<g>
		<path d="M89.764,71.397c-7.972-22.755-39.637-24.427-50.046-2.796c-3.143,6.529-3.554,13.892-1.159,20.73
			c7.982,22.788,39.592,24.522,50.046,2.796C91.749,85.599,92.16,78.237,89.764,71.397z M58.903,91.291
			c-6.038-2.905-8.575-10.146-5.668-16.185c4.676-9.718,18.822-8.888,22.371,1.25C79.163,86.513,68.595,95.954,58.903,91.291z"/>
	</g>
</g>
<g>
	<g>
		<path d="M40.472,100.421c-11.592-5.578-25.487-0.714-31.069,10.88c-7.445,15.476,3.933,33.368,20.937,33.368
			c8.669,0,17.007-4.86,21.011-13.182C56.917,119.923,52.036,105.986,40.472,100.421z M37.834,124.982
			c-1.979,4.113-6.937,5.847-11.047,3.869c-4.11-1.979-5.846-6.933-3.868-11.045c1.978-4.112,6.933-5.844,11.046-3.869
			C38.076,115.917,39.813,120.872,37.834,124.982z"/>
	</g>
</g>
<g>
	<g>
		<path d="M25.616,148.288c-8.875-4.271-19.575-0.523-23.849,8.353l-0.001,0.001c-4.271,8.879-0.524,19.578,8.354,23.851
			c8.898,4.282,19.567,0.55,23.852-8.354C38.242,163.26,34.495,152.561,25.616,148.288z M16.624,166.976
			c-3.417-1.646-0.936-6.808,2.488-5.171C22.599,163.485,19.969,168.587,16.624,166.976z"/>
	</g>
</g>
<g>
	<g>
		<path d="M237.54,334.992c-12.316-27.014-18.291-51.469-14.085-81.753c1.686-12.134,4.812-23.056,9.971-33.912
			c34.457-73.196-32.414-147.415-114.454-123.371c-57.135,16.747-92.117,76.249-72.025,128.826l2.281,7.18
			c1.254,3.948,5.474,6.134,9.419,4.876c3.947-1.254,6.131-5.471,4.876-9.42c-2.567-8.064-2.358-7.452-2.496-7.812
			c-17.193-44.698,13.454-94.979,62.163-109.255c68.854-20.185,125.86,40.209,96.746,102.408
			c-2.417,4.542-29.947,59.177,3.988,128.534c24.198,53.479-26.208,113.872-79.324,82.068c-17.07-10.22-29.603-27.48-33.523-46.171
			c-0.12-0.575-9.56-30.179-36.949-116.403c-1.253-3.948-5.47-6.128-9.42-4.876c-3.947,1.254-6.131,5.471-4.876,9.42l36.645,115.32
			c4.853,22.565,19.938,43.32,40.418,55.581C202.165,475.305,268.19,402.461,237.54,334.992z"/>
	</g>
</g>
<g>
	<g>
		<path d="M468.149,279.729c12.451-49.831-21.252-103.22-75.129-119.012c-47.232-13.846-95.638,5.397-115.094,45.756
			c-1.799,3.731-0.232,8.214,3.499,10.014c3.729,1.796,8.214,0.233,10.014-3.499c16.256-33.717,57.195-49.648,97.362-37.874
			c49.027,14.371,79.252,64.859,62.164,109.255c-0.154,0.399,1.836-5.806-40.992,128.954c-1.54,4.846,2.093,9.774,7.149,9.774
			c3.18,0,6.132-2.038,7.146-5.23C472.212,267.709,467.951,280.52,468.149,279.729z"/>
	</g>
</g>
<g>
	<g>
		<path d="M408.969,441.865c-3.977-1.168-8.143,1.102-9.314,5.076c-9.969,33.85-45.808,56.828-75.181,48.223
			c-36.197-10.61-52.349-53.886-36.409-89.111c33.937-69.356,6.406-123.989,3.989-128.531c-5.07-10.832-7.639-22.104-7.634-33.509
			c0.002-4.143-3.355-7.501-7.497-7.503h-0.003c-4.141,0-7.498,3.356-7.5,7.497c-0.005,15.128,4.416,31.47,9.355,40.49
			c0.275,0.502,27.161,51.008-4.229,115.058c-9.458,19.202-10.91,46.108-0.214,69.452c18.006,39.301,62.683,56.396,102.927,30.648
			c17.629-11.28,31.038-28.949,36.787-48.476C415.216,447.205,412.943,443.035,408.969,441.865z"/>
	</g>
</g>
<g>
</g>
<g>
</g>
<g>
</g>
<g>
</g>
<g>
</g>
<g>
</g>
<g>
</g>
<g>
</g>
<g>
</g>
<g>
</g>
<g>
</g>
<g>
</g>
<g>
</g>
<g>
</g>
<g>
</g>
</svg>
